<svg id="icon-thumbsup" xmlns="http://www.w3.org/2000/svg" width="56" height="56" viewBox="0 0 56 56">
  <rect id="_56" data-name="56" width="56" height="56" fill="none"/>
  <path id="icon-thumbsup-2" data-name="icon-thumbsup" d="M26.281,2.25l-12.6,12.6A4.058,4.058,0,0,0,12.5,17.672V37.688a3.939,3.939,0,0,0,3.938,3.938H33.566a3.964,3.964,0,0,0,3.609-2.362l6.3-14.175A6.21,6.21,0,0,0,44,22.594V20.625a4.4,4.4,0,0,0-4.2-4.2H27.2s3.019-8.088,3.019-9.516C30.219,3.218,26.281,2.25,26.281,2.25ZM2,16.425v25.2H8.3v-25.2Z" transform="translate(6 4.75)" fill="#fff"/>
</svg>
