<svg xmlns="http://www.w3.org/2000/svg" xmlns:xlink="http://www.w3.org/1999/xlink" width="56" height="56" viewBox="0 0 56 56">
  <defs>
    <clipPath id="clip-path">
      <rect width="56" height="56" fill="none"/>
    </clipPath>
  </defs>
  <g id="Componente_40" data-name="Componente 40" clip-path="url(#clip-path)">
    <rect id="_56" data-name="56" width="56" height="56" fill="none"/>
    <path id="icon-thumbsup" d="M26.281,41.625l-12.6-12.6A4.058,4.058,0,0,1,12.5,26.2V6.188A3.939,3.939,0,0,1,16.438,2.25H33.566a3.964,3.964,0,0,1,3.609,2.362l6.3,14.175A6.21,6.21,0,0,1,44,21.281V23.25a4.4,4.4,0,0,1-4.2,4.2H27.2s3.019,8.088,3.019,9.516C30.219,40.657,26.281,41.625,26.281,41.625ZM2,27.45V2.25H8.3v25.2Z" transform="translate(6 4.75)" fill="#fff"/>
  </g>
</svg>
